<svg width="49" height="49" viewBox="0 0 49 49" fill="none" xmlns="http://www.w3.org/2000/svg">
<path d="M24.5 13.475C24.5 16.399 23.3384 19.2032 21.2708 21.2708C19.2032 23.3384 16.399 24.5 13.475 24.5C10.5509 24.5 7.74669 23.3384 5.6791 21.2708C3.61151 19.2032 2.44995 16.399 2.44995 13.475C2.44995 10.5509 3.61151 7.74669 5.6791 5.6791C7.74669 3.61151 10.5509 2.44995 13.475 2.44995C16.399 2.44995 19.2032 3.61151 21.2708 5.6791C23.3384 7.74669 24.5 10.5509 24.5 13.475ZM14.7 8.57495C14.7 8.25006 14.5709 7.93848 14.3412 7.70875C14.1114 7.47901 13.7998 7.34995 13.475 7.34995C13.1501 7.34995 12.8385 7.47901 12.6087 7.70875C12.379 7.93848 12.25 8.25006 12.25 8.57495V12.25H8.57495C8.25006 12.25 7.93848 12.379 7.70875 12.6087C7.47901 12.8385 7.34995 13.1501 7.34995 13.475C7.34995 13.7998 7.47901 14.1114 7.70875 14.3412C7.93848 14.5709 8.25006 14.7 8.57495 14.7H12.25V18.375C12.25 18.6998 12.379 19.0114 12.6087 19.2412C12.8385 19.4709 13.1501 19.6 13.475 19.6C13.7998 19.6 14.1114 19.4709 14.3412 19.2412C14.5709 19.0114 14.7 18.6998 14.7 18.375V14.7H18.375C18.6998 14.7 19.0114 14.5709 19.2412 14.3412C19.4709 14.1114 19.6 13.7998 19.6 13.475C19.6 13.1501 19.4709 12.8385 19.2412 12.6087C19.0114 12.379 18.6998 12.25 18.375 12.25H14.7V8.57495ZM34.3 9.79995H26.4428C26.2031 8.95365 25.8806 8.13302 25.4799 7.34995H34.3C36.2493 7.34995 38.1188 8.12432 39.4972 9.50272C40.8756 10.8811 41.65 12.7506 41.65 14.7V34.3C41.65 36.2493 40.8756 38.1188 39.4972 39.4972C38.1188 40.8756 36.2493 41.65 34.3 41.65H14.7C12.7506 41.65 10.8811 40.8756 9.50272 39.4972C8.12432 38.1188 7.34995 36.2493 7.34995 34.3V25.4799C8.1266 25.8769 8.9449 26.2003 9.79995 26.4428V34.3C9.79995 35.2138 10.0499 36.0689 10.486 36.799L21.925 25.5584C22.6122 24.8835 23.5368 24.5054 24.5 24.5054C25.4631 24.5054 26.3877 24.8835 27.0749 25.5584L38.5164 36.799C38.9655 36.0428 39.2016 35.1794 39.2 34.3V14.7C39.2 13.4004 38.6837 12.1541 37.7648 11.2351C36.8458 10.3162 35.5995 9.79995 34.3 9.79995ZM34.3 18.375C34.3 18.8576 34.2049 19.3354 34.0202 19.7813C33.8355 20.2272 33.5648 20.6323 33.2236 20.9736C32.8823 21.3148 32.4772 21.5855 32.0313 21.7702C31.5854 21.9549 31.1076 22.05 30.625 22.05C30.1423 22.05 29.6645 21.9549 29.2186 21.7702C28.7727 21.5855 28.3676 21.3148 28.0263 20.9736C27.6851 20.6323 27.4144 20.2272 27.2297 19.7813C27.045 19.3354 26.95 18.8576 26.95 18.375C26.95 17.4003 27.3371 16.4655 28.0263 15.7763C28.7155 15.0871 29.6503 14.7 30.625 14.7C31.5996 14.7 32.5344 15.0871 33.2236 15.7763C33.9128 16.4655 34.3 17.4003 34.3 18.375ZM31.85 18.375C31.85 18.0501 31.7209 17.7385 31.4912 17.5087C31.2614 17.279 30.9498 17.15 30.625 17.15C30.3001 17.15 29.9885 17.279 29.7587 17.5087C29.529 17.7385 29.4 18.0501 29.4 18.375C29.4 18.6998 29.529 19.0114 29.7587 19.2412C29.9885 19.4709 30.3001 19.6 30.625 19.6C30.9498 19.6 31.2614 19.4709 31.4912 19.2412C31.7209 19.0114 31.85 18.6998 31.85 18.375ZM12.2206 38.5287C12.9722 38.97 13.8283 39.2018 14.7 39.2H34.3C35.2065 39.2 36.0517 38.955 36.7794 38.5287L25.3575 27.3077C25.1285 27.0832 24.8206 26.9575 24.5 26.9575C24.1793 26.9575 23.8714 27.0832 23.6425 27.3077L12.2206 38.5287Z" fill="#DCDCDC"/>
</svg>
