<svg width="36" height="35" viewBox="0 0 36 35" fill="none" xmlns="http://www.w3.org/2000/svg">
<g clip-path="url(#clip0_13_2275)">
<path d="M32.7108 33.8732V30.2334C32.7108 28.3027 31.9438 26.4511 30.5786 25.0859C29.2134 23.7207 27.3618 22.9537 25.4311 22.9537H10.8719C8.94123 22.9537 7.08963 23.7207 5.72444 25.0859C4.35924 26.4511 3.59229 28.3027 3.59229 30.2334V33.8732" stroke="#9A9A9A" stroke-width="2.18389" stroke-linecap="round" stroke-linejoin="round"/>
<path d="M18.1517 15.6741C22.1721 15.6741 25.4313 12.4149 25.4313 8.39449C25.4313 4.37406 22.1721 1.11487 18.1517 1.11487C14.1313 1.11487 10.8721 4.37406 10.8721 8.39449C10.8721 12.4149 14.1313 15.6741 18.1517 15.6741Z" stroke="#9A9A9A" stroke-width="2.18389" stroke-linecap="round" stroke-linejoin="round"/>
</g>
<defs>
<clipPath id="clip0_13_2275">
<rect width="34.9422" height="34.9422" fill="white" transform="translate(0.680908 0.0229492)"/>
</clipPath>
</defs>
</svg>
